<?xml version="1.0" standalone="no"?>
<!DOCTYPE svg PUBLIC "-//W3C//DTD SVG 20010904//EN"
 "http://www.w3.org/TR/2001/REC-SVG-20010904/DTD/svg10.dtd">
<svg version="1.0" xmlns="http://www.w3.org/2000/svg"
 width="512.000000pt" height="512.000000pt" viewBox="0 0 512.000000 512.000000"
 preserveAspectRatio="xMidYMid meet">
<metadata>
Created by potrace 1.11, written by Peter Selinger 2001-2013
</metadata>
<g transform="translate(0.000000,512.000000) scale(0.100000,-0.100000)"
fill="#000000" stroke="none">
<path d="M2745 3764 c-147 -17 -270 -52 -362 -105 -64 -37 -173 -136 -204
-185 -11 -19 -26 -34 -33 -34 -7 0 -24 -28 -38 -62 l-25 -62 -23 69 -23 69
-13 -29 c-8 -17 -20 -46 -28 -65 l-14 -35 -17 40 c-10 22 -22 51 -28 65 -9 23
-11 21 -30 -37 -12 -35 -23 -63 -26 -63 -3 0 -17 27 -31 59 -14 33 -26 58 -28
57 -1 -2 -11 -32 -21 -66 l-17 -63 -35 62 -35 62 -13 -66 c-7 -36 -16 -65 -20
-65 -3 0 -20 26 -38 58 l-31 57 -7 -40 c-3 -22 -9 -53 -13 -69 l-7 -30 -34 52
c-18 29 -37 52 -42 52 -5 0 -9 -27 -9 -60 0 -33 -4 -60 -9 -60 -5 0 -26 23
-47 51 l-39 50 -3 -71 -3 -70 -50 52 -50 53 5 -32 c3 -18 3 -33 1 -33 -3 0
-26 16 -52 37 -70 53 -217 121 -303 139 -126 27 -292 8 -421 -47 -39 -17 -49
-26 -49 -45 0 -44 32 -49 138 -18 120 35 271 39 367 10 75 -22 213 -93 224
-115 11 -22 22 -81 15 -81 -4 0 -28 16 -54 35 -26 19 -50 35 -53 35 -5 0 3
-34 28 -109 7 -23 6 -23 -49 9 -32 18 -59 30 -62 28 -2 -3 7 -30 21 -61 13
-32 22 -57 20 -57 -3 0 -32 11 -65 24 -33 14 -60 22 -60 20 0 -3 16 -29 35
-59 38 -60 36 -62 -45 -40 -30 8 -55 13 -57 12 -1 -2 15 -23 36 -47 l38 -44
52 22 c159 66 329 42 458 -64 198 -163 203 -492 10 -660 -56 -48 -149 -92
-227 -106 -107 -18 -247 18 -326 85 l-31 26 -52 -38 -52 -39 73 -7 73 -8 -55
-48 -55 -49 74 0 c67 0 72 -1 60 -17 -8 -9 -29 -23 -48 -30 -24 -10 -30 -17
-22 -23 9 -5 10 -10 2 -14 -24 -15 -8 -23 39 -18 77 7 87 -1 53 -44 -15 -20
-45 -44 -66 -54 l-39 -18 66 -13 c36 -7 70 -16 76 -19 18 -11 -20 -64 -64 -90
-40 -23 -41 -24 -16 -31 14 -4 50 -8 80 -9 98 -3 99 -8 15 -74 -41 -32 -75
-61 -75 -64 0 -3 46 -2 103 2 l102 7 -75 -75 c-41 -42 -70 -76 -65 -76 6 0 51
7 100 14 50 8 91 13 93 11 1 -1 -25 -36 -58 -78 -33 -43 -55 -77 -49 -77 6 0
47 9 91 21 44 11 82 18 85 16 2 -3 -15 -36 -39 -73 -25 -38 -48 -75 -52 -82
-4 -6 36 3 88 23 53 19 96 32 96 29 0 -2 -18 -41 -41 -85 -22 -45 -39 -82 -37
-84 2 -2 41 15 87 36 46 22 85 38 86 37 2 -2 -12 -41 -30 -88 -19 -47 -32 -87
-30 -89 2 -2 38 18 81 43 42 26 78 45 81 43 2 -3 -7 -46 -21 -96 l-25 -92 52
38 c29 20 67 48 85 62 l33 24 -6 -24 c-3 -13 -12 -59 -19 -102 l-13 -77 41 35
c23 19 58 49 79 66 l38 31 -5 -38 c-3 -22 -8 -68 -11 -104 l-5 -65 70 75 69
75 1 -99 0 -99 26 24 c14 13 42 45 62 72 20 26 40 47 44 47 4 0 8 -33 9 -72 2
-127 6 -129 69 -38 30 43 56 78 57 76 1 -1 8 -38 14 -82 6 -43 15 -85 19 -92
4 -9 24 16 55 70 l49 83 22 -93 c12 -51 24 -95 26 -98 3 -2 24 37 48 88 l43
92 28 -94 c16 -51 31 -95 33 -97 2 -3 18 33 36 79 18 46 35 87 38 92 3 5 22
-33 43 -85 21 -52 40 -87 42 -79 3 8 15 47 27 85 13 39 26 73 29 77 4 5 25
-28 46 -72 21 -44 42 -80 46 -80 3 0 15 38 24 85 10 47 21 88 25 90 3 2 26
-32 50 -76 25 -43 48 -79 51 -79 3 0 12 44 20 97 l14 97 53 -77 c29 -42 57
-79 62 -82 6 -4 10 21 11 62 1 37 4 81 8 97 6 29 6 29 66 -45 l60 -74 3 99 3
100 70 -70 71 -69 -7 93 c-4 50 -3 92 1 92 5 -1 38 -27 74 -60 35 -32 66 -57
68 -55 2 2 -4 40 -13 84 -9 45 -15 86 -13 92 2 6 37 -14 78 -44 41 -30 76 -54
78 -52 2 1 -8 42 -22 91 -14 48 -24 89 -22 91 2 2 38 -17 80 -43 43 -25 79
-44 82 -41 2 2 -9 40 -26 83 -16 43 -30 82 -30 86 0 4 38 -11 84 -33 46 -21
87 -39 90 -39 3 0 -14 40 -39 90 l-45 89 95 -34 c52 -19 95 -31 95 -27 -1 4
-23 41 -50 82 -27 41 -47 76 -46 78 2 2 41 -6 86 -18 45 -12 86 -20 91 -18 5
2 -16 35 -47 73 -64 80 -62 82 46 66 38 -6 75 -11 82 -11 7 0 -19 31 -57 70
l-69 70 103 0 104 0 -81 64 -81 63 46 7 c25 3 64 6 87 6 73 0 70 13 -16 65
-91 56 -92 53 37 81 l80 17 -87 40 c-49 23 -88 43 -88 47 0 3 42 20 93 37 l92
30 -92 29 c-51 16 -93 32 -93 36 0 3 9 10 20 13 12 4 51 20 88 37 l67 31 -93
17 c-51 10 -94 19 -97 21 -2 3 33 27 78 54 l82 50 -65 2 c-36 2 -80 5 -98 9
l-33 5 68 56 c90 73 93 77 63 70 -14 -3 -61 -9 -105 -13 l-79 -7 62 69 c34 38
58 70 52 72 -5 2 -44 -6 -86 -18 -42 -11 -79 -19 -81 -16 -2 2 17 36 42 76 25
40 44 74 42 76 -2 3 -41 -11 -86 -30 -44 -20 -81 -31 -81 -25 0 5 13 35 29 67
54 108 53 110 -39 52 -45 -28 -84 -50 -86 -47 -2 2 5 30 16 62 24 71 25 75 3
75 -20 0 -47 -14 -94 -49 l-32 -24 5 28 6 28 -82 -7 c-44 -3 -97 -6 -117 -6
-29 0 -41 -6 -54 -26 l-17 -27 33 6 c19 4 54 9 79 13 l45 6 -55 -56 -55 -57
78 3 c42 2 77 2 77 1 0 -1 -25 -21 -55 -44 -30 -23 -55 -45 -55 -50 0 -5 24
-9 53 -10 90 -1 95 -10 27 -47 -33 -19 -58 -37 -55 -42 2 -4 34 -13 71 -20 36
-7 62 -16 57 -20 -4 -4 -34 -18 -65 -30 -32 -13 -58 -27 -58 -30 0 -4 28 -15
63 -25 34 -10 66 -21 71 -24 6 -2 -26 -17 -70 -31 l-79 -27 73 -33 c81 -37 80
-40 -10 -60 -32 -7 -58 -17 -58 -21 0 -4 25 -22 55 -39 30 -17 57 -35 60 -39
2 -5 -29 -12 -70 -16 -41 -4 -75 -10 -75 -13 0 -4 28 -27 63 -52 l62 -45 -85
-3 -85 -3 60 -55 60 -55 -77 3 c-43 2 -78 2 -78 0 0 -3 23 -31 51 -63 49 -57
50 -59 22 -54 -94 18 -128 23 -131 21 -1 -2 16 -28 39 -60 23 -32 39 -60 36
-62 -3 -3 -33 2 -66 12 -34 9 -64 14 -67 12 -3 -3 11 -32 30 -64 19 -33 33
-61 31 -63 -2 -2 -34 9 -71 23 -36 15 -68 25 -70 24 -1 -2 10 -32 26 -68 16
-36 27 -66 25 -68 -1 -2 -31 11 -65 28 -34 17 -64 30 -66 27 -2 -2 6 -32 17
-66 12 -34 19 -64 16 -67 -3 -3 -31 11 -62 31 -32 20 -59 34 -61 32 -3 -2 2
-33 11 -68 8 -35 15 -68 15 -72 0 -5 -27 13 -61 38 -33 26 -62 45 -64 43 -3
-2 0 -31 5 -64 6 -32 10 -65 10 -72 0 -8 -28 10 -62 39 l-61 54 6 -85 5 -84
-50 57 c-27 31 -54 57 -58 57 -5 0 -10 -34 -12 -76 l-3 -76 -45 61 c-25 33
-48 60 -51 61 -4 0 -11 -35 -15 -77 l-9 -78 -45 70 -44 69 -9 -39 c-5 -22 -13
-58 -19 -80 l-10 -40 -32 63 c-18 35 -36 64 -41 63 -5 0 -18 -31 -30 -68 l-22
-68 -23 50 c-12 28 -26 61 -32 75 -9 23 -11 20 -38 -44 -16 -38 -31 -71 -34
-73 -3 -3 -14 27 -26 66 -12 39 -23 71 -25 71 -2 0 -18 -27 -36 -60 -17 -33
-35 -60 -39 -60 -4 0 -14 29 -21 65 -7 36 -16 65 -20 65 -4 0 -25 -28 -46 -62
-38 -61 -38 -61 -44 -32 -4 16 -7 45 -8 64 -2 64 -14 64 -64 -2 l-47 -61 0 45
c0 25 -3 60 -6 78 l-7 32 -54 -54 -54 -53 5 88 c4 73 10 97 34 138 l29 50 18
-61 c10 -34 22 -63 25 -65 4 -3 20 23 35 58 l27 62 24 -54 c13 -29 24 -57 24
-62 0 -5 4 -9 8 -9 5 0 17 27 27 60 10 33 21 60 24 60 3 0 19 -25 35 -54 16
-30 33 -53 37 -51 3 3 12 32 18 65 7 33 13 60 15 60 2 0 21 -25 42 -56 36 -52
39 -54 45 -33 4 13 7 43 8 67 1 23 5 42 10 42 5 0 26 -21 47 -47 37 -45 39
-46 45 -22 4 13 7 44 8 69 l1 44 51 -49 51 -50 -5 73 c-3 52 -1 70 7 64 6 -5
33 -26 60 -48 l49 -39 -7 28 c-3 15 -9 48 -13 73 l-6 46 56 -36 c31 -20 58
-36 61 -36 2 0 -4 29 -14 65 -10 36 -17 65 -14 65 3 0 32 -14 66 -31 35 -18
59 -25 55 -17 -39 99 -45 118 -38 118 4 0 32 -10 60 -21 28 -12 54 -19 57 -16
3 3 -7 28 -21 57 -14 29 -25 54 -23 56 2 2 32 -5 66 -15 34 -11 62 -17 62 -15
0 3 -16 30 -36 61 l-36 56 39 -6 c21 -4 54 -10 73 -13 l34 -7 -22 29 c-12 16
-32 42 -44 58 l-22 29 75 -7 74 -7 -55 56 -54 55 74 0 75 1 -54 49 -55 50 50
1 c27 1 60 4 73 8 24 6 22 9 -33 48 l-58 41 71 12 c39 6 71 13 71 15 0 2 -25
19 -55 37 -52 31 -68 48 -44 48 6 0 36 7 67 16 l55 16 -69 32 -69 32 67 24
c37 13 65 26 63 30 -2 4 -32 15 -66 25 l-63 19 70 32 69 31 -55 13 c-86 20
-90 25 -39 50 79 40 79 44 3 55 l-69 10 59 43 59 42 -73 0 -74 0 49 51 50 51
-70 -7 -70 -7 20 23 c11 13 30 36 44 51 13 15 22 30 20 33 -3 2 -29 -2 -59
-10 -30 -8 -58 -15 -63 -15 -4 0 7 25 24 55 17 30 26 55 21 55 -6 0 -32 -9
-58 -20 -26 -11 -49 -19 -51 -16 -2 2 7 29 21 60 14 31 23 56 20 56 -3 0 -27
-12 -55 -26 -28 -14 -53 -23 -56 -20 -3 2 3 28 12 56 9 28 15 53 13 56 -3 2
-20 -8 -39 -22 -19 -14 -42 -30 -53 -36 -20 -11 -20 -5 1 97 l6 30 -57 -49
-56 -48 6 72 7 72 -49 -52 -49 -53 -5 69 -5 69 -40 -53 -40 -53 -6 28 c-4 15
-7 48 -8 73 l-1 45 -38 -57 c-20 -32 -40 -58 -44 -58 -4 0 -10 27 -14 60 -4
33 -10 60 -15 60 -4 0 -20 -22 -35 -50 -15 -27 -30 -50 -34 -50 -4 0 -10 18
-14 39 -3 22 -9 47 -12 55 -4 12 16 39 68 90 129 126 263 179 498 194 l115 7
3 29 c2 16 -2 32 -10 37 -12 8 -120 10 -183 3z m-360 -739 c90 -24 167 -70
238 -144 102 -105 147 -216 147 -361 0 -236 -152 -437 -379 -504 -78 -23 -213
-21 -293 4 -259 80 -420 365 -353 624 48 184 206 344 381 385 62 14 195 12
259 -4z m-1095 -1445 c0 -14 -38 -32 -58 -28 -13 3 -10 8 13 21 35 19 45 21
45 7z m86 -66 c-3 -9 -6 -22 -6 -29 0 -7 -14 -18 -31 -24 -42 -14 -42 -15 -28
12 20 40 79 77 65 41z m90 -100 c-6 -22 -62 -61 -72 -51 -8 8 19 61 45 90 25
28 26 28 29 7 2 -12 1 -33 -2 -46z m104 -37 c0 -51 -1 -53 -45 -79 -25 -15
-45 -26 -45 -24 0 17 44 124 57 138 26 29 33 22 33 -35z m79 -130 c-67 -56
-69 -55 -49 23 10 38 28 84 41 102 l24 33 9 -65 8 -64 -33 -29z m140 46 l12
-61 -48 -46 c-55 -52 -59 -47 -44 50 10 63 48 142 62 126 3 -4 12 -35 18 -69z"/>
<path d="M2239 2867 c-100 -28 -184 -99 -231 -196 -20 -39 -23 -62 -23 -151 0
-89 3 -112 23 -152 57 -116 167 -193 293 -204 168 -16 326 92 373 255 64 222
-90 441 -321 456 -40 3 -87 0 -114 -8z"/>
<path d="M840 2874 c27 -31 50 -37 72 -17 20 18 20 18 -4 24 -12 4 -36 7 -52
8 -25 1 -27 -1 -16 -15z"/>
<path d="M1173 2801 c-167 -57 -247 -242 -175 -404 74 -166 284 -226 437 -125
60 40 102 103 122 183 15 60 15 70 0 130 -20 82 -62 144 -124 183 -86 54 -168
65 -260 33z"/>
<path d="M790 2785 c0 -2 9 -9 19 -14 14 -8 20 -7 25 4 4 11 -2 15 -19 15 -14
0 -25 -2 -25 -5z"/>
<path d="M765 2680 c3 -5 8 -10 11 -10 2 0 4 5 4 10 0 6 -5 10 -11 10 -5 0 -7
-4 -4 -10z"/>
<path d="M761 2361 c-10 -6 -9 -10 5 -15 20 -8 25 -4 16 11 -4 7 -13 9 -21 4z"/>
<path d="M785 2250 c-25 -17 -27 -20 -10 -20 11 0 38 -3 60 -7 l40 -6 -24 27
c-29 31 -28 31 -66 6z"/>
<path d="M4401 923 c12 -21 35 -57 51 -80 15 -23 28 -44 28 -47 0 -4 -95 29
-173 60 -15 5 -8 -14 27 -85 26 -50 44 -91 41 -91 -3 0 -42 18 -86 41 -45 22
-84 38 -87 35 -3 -3 9 -43 27 -87 17 -45 30 -84 27 -86 -2 -2 -38 17 -80 43
-43 25 -79 44 -82 41 -3 -3 4 -37 16 -75 l20 -71 128 -40 c70 -22 253 -81 407
-130 154 -50 281 -88 283 -86 6 6 -550 695 -560 695 -5 0 1 -17 13 -37z"/>
<path d="M3970 591 c0 -10 31 -31 45 -31 11 0 -5 20 -26 30 -12 7 -19 7 -19 1z"/>
</g>
</svg>
